<svg xmlns="http://www.w3.org/2000/svg" version="1.1" xmlns:xlink="http://www.w3.org/1999/xlink" xmlns:svgjs="http://svgjs.dev/svgjs" width="1500" height="371" viewBox="0 0 1500 371"><g transform="matrix(1,0,0,1,-0.9090909090911055,0.8226773698749525)"><svg viewBox="0 0 396 98" data-background-color="#ffffff" preserveAspectRatio="xMidYMid meet" height="371" width="1500" xmlns="http://www.w3.org/2000/svg" xmlns:xlink="http://www.w3.org/1999/xlink"><g id="tight-bounds" transform="matrix(1,0,0,1,0.24000000000003752,-0.21731100336319287)"><svg viewBox="0 0 395.5199999999999 98.43462200672639" height="98.43462200672639" width="395.5199999999999"><g><svg viewBox="0 0 543.1500987471366 135.17590681404354" height="98.43462200672639" width="395.5199999999999"><g transform="matrix(1,0,0,1,0,18.682053691376503)"><svg viewBox="0 0 395.52 97.81179943129054" height="97.81179943129054" width="395.52"><g id="textblocktransform"><svg viewBox="0 0 395.52 97.81179943129054" height="97.81179943129054" width="395.52" id="textblock"><g><svg viewBox="0 0 395.52 52.755010814707994" height="52.755010814707994" width="395.52"><g transform="matrix(1,0,0,1,0,0)"><svg width="395.52" viewBox="0.75 -36.5 277.37 37" height="52.755010814707994" data-palette-color="#729343"><path d="M0.75-33L27-33 27-31.75 14.6-31.75 14.6 0 13.2 0 13.2-31.75 0.75-31.75 0.75-33ZM33.5 0L32.1 0 32.1-25 33.35-25 33.45-18.95Q34.35-21.8 36.47-23.65 38.6-25.5 41.6-25.5L41.6-25.5Q42.8-25.5 43.65-25.23 44.5-24.95 45-24.45L45-24.45 44.5-23.25Q44-23.7 43.35-23.98 42.7-24.25 41.35-24.25L41.35-24.25Q39.15-24.25 37.37-22.88 35.6-21.5 34.55-19.25 33.5-17 33.5-14.35L33.5-14.35 33.5 0ZM65.65-8.45L65.65-16.7Q65.65-20.2 63.7-22.25 61.75-24.3 58.1-24.3L58.1-24.3Q55.05-24.3 52.82-22.95 50.6-21.6 49.5-18.6L49.5-18.6 48.4-19.35Q49.5-22.4 52.02-23.95 54.55-25.5 58.15-25.5L58.15-25.5Q60.9-25.5 62.9-24.5 64.9-23.5 65.97-21.55 67.05-19.6 67.05-16.85L67.05-16.85 67.05-4.1Q67.05-0.8 69.8-0.8L69.8-0.8Q70.84-0.8 71.55-1.2L71.55-1.2 71.45-0.05Q70.7 0.4 69.5 0.4L69.5 0.4Q68.59 0.4 67.7 0 66.8-0.4 66.22-1.4 65.65-2.4 65.65-4.3L65.65-4.3 65.65-6.25 66.09-6.45Q65.7-4.1 64.15-2.55 62.6-1 60.45-0.25 58.3 0.5 56.1 0.5L56.1 0.5Q53.65 0.5 51.85-0.23 50.05-0.95 49.05-2.35 48.05-3.75 48.05-5.75L48.05-5.75Q48.05-8.55 49.92-10.18 51.8-11.8 55.25-12.45L55.25-12.45 65.9-14.55 65.9-13.35 56.05-11.4Q52.75-10.8 51.12-9.43 49.5-8.05 49.5-5.85L49.5-5.85Q49.5-3.4 51.25-2.08 53-0.75 56.3-0.75L56.3-0.75Q57.8-0.75 59.4-1.18 61-1.6 62.45-2.53 63.9-3.45 64.77-4.93 65.65-6.4 65.65-8.45L65.65-8.45ZM84.04-1.55L93.69-25 95.19-25 84.74 0 83.29 0 72.79-25 74.39-25 84.04-1.55ZM110.54 0.5L110.54 0.5Q107.19 0.5 104.54-1.05 101.89-2.6 100.34-5.53 98.79-8.45 98.79-12.5L98.79-12.5Q98.79-16.6 100.32-19.5 101.84-22.4 104.39-23.95 106.94-25.5 110.14-25.5L110.14-25.5Q113.49-25.5 115.87-24 118.24-22.5 119.52-19.78 120.79-17.05 120.79-13.3L120.79-13.3Q120.79-13.1 120.79-12.88 120.79-12.65 120.74-12.5L120.74-12.5 99.64-12.5 99.64-13.75 120.14-13.75 119.49-13.45Q119.44-18.3 117.02-21.3 114.59-24.3 110.14-24.3L110.14-24.3Q107.29-24.3 105.04-22.88 102.79-21.45 101.49-18.82 100.19-16.2 100.19-12.5L100.19-12.5Q100.19-8.8 101.52-6.18 102.84-3.55 105.17-2.15 107.49-0.75 110.49-0.75L110.49-0.75Q113.49-0.75 115.84-2.15 118.19-3.55 119.44-6L119.44-6 120.54-5.4Q119.69-3.55 118.19-2.25 116.69-0.95 114.74-0.23 112.79 0.5 110.54 0.5ZM127.44-36.5L128.84-36.5 128.84-5.55Q128.84-2.95 129.69-1.85 130.54-0.75 132.34-0.75L132.34-0.75Q133.44-0.75 134.04-0.9 134.64-1.05 135.34-1.35L135.34-1.35 135.19-0.1Q134.64 0.15 133.89 0.33 133.14 0.5 132.14 0.5L132.14 0.5Q129.79 0.5 128.61-0.95 127.44-2.4 127.44-5.5L127.44-5.5 127.44-36.5ZM165.38-33.5L165.38-33.5Q169.98-33.5 173.11-31.68 176.23-29.85 177.53-25.95L177.53-25.95 176.38-25.1Q175.23-28.8 172.41-30.53 169.58-32.25 165.28-32.25L165.28-32.25Q162.13-32.25 159.83-31.2 157.53-30.15 156.28-28.43 155.03-26.7 155.03-24.55L155.03-24.55Q155.03-21.85 156.83-20.18 158.63-18.5 163.13-17.55L163.13-17.55 169.13-16.3Q174.03-15.25 176.06-13.4 178.08-11.55 178.08-8.5L178.08-8.5Q178.08-5.8 176.56-3.78 175.03-1.75 172.33-0.63 169.63 0.5 165.98 0.5L165.98 0.5Q162.53 0.5 159.73-0.45 156.93-1.4 155.06-3.3 153.18-5.2 152.48-8L152.48-8 153.78-8.9Q154.28-6.15 156.01-4.35 157.73-2.55 160.31-1.65 162.88-0.75 166.03-0.75L166.03-0.75Q169.03-0.75 171.43-1.63 173.83-2.5 175.26-4.23 176.68-5.95 176.68-8.4L176.68-8.4Q176.68-10.85 174.88-12.45 173.08-14.05 168.73-14.9L168.73-14.9 162.63-16.25Q159.38-16.95 157.41-18.05 155.43-19.15 154.51-20.73 153.58-22.3 153.58-24.45L153.58-24.45Q153.58-26.85 155.01-28.9 156.43-30.95 159.06-32.23 161.68-33.5 165.38-33.5ZM194.78-25.5L194.78-25.5Q197.28-25.5 199.28-24.7 201.28-23.9 202.66-22.38 204.03-20.85 204.68-18.7L204.68-18.7 203.43-18.05Q202.63-21.05 200.38-22.68 198.13-24.3 194.73-24.3L194.73-24.3Q191.78-24.3 189.48-22.88 187.18-21.45 185.86-18.82 184.53-16.2 184.53-12.5L184.53-12.5Q184.53-8.85 185.83-6.2 187.13-3.55 189.41-2.15 191.68-0.75 194.63-0.75L194.63-0.75Q196.88-0.75 198.81-1.55 200.73-2.35 202.01-3.83 203.28-5.3 203.63-7.3L203.63-7.3 204.93-6.85Q204.43-4.6 202.96-2.95 201.48-1.3 199.36-0.4 197.23 0.5 194.63 0.5L194.63 0.5Q191.28 0.5 188.71-1.05 186.13-2.6 184.63-5.53 183.13-8.45 183.13-12.5L183.13-12.5Q183.13-16.55 184.66-19.48 186.18-22.4 188.81-23.95 191.43-25.5 194.78-25.5ZM212.83 0L211.43 0 211.43-25 212.68-25 212.78-18.95Q213.68-21.8 215.8-23.65 217.93-25.5 220.93-25.5L220.93-25.5Q222.13-25.5 222.98-25.23 223.83-24.95 224.33-24.45L224.33-24.45 223.83-23.25Q223.33-23.7 222.68-23.98 222.03-24.25 220.68-24.25L220.68-24.25Q218.48-24.25 216.7-22.88 214.93-21.5 213.88-19.25 212.83-17 212.83-14.35L212.83-14.35 212.83 0ZM239.18-25.5L239.18-25.5Q242.68-25.5 245.33-23.95 247.98-22.4 249.48-19.48 250.98-16.55 250.98-12.5L250.98-12.5Q250.98-8.45 249.48-5.53 247.98-2.6 245.33-1.05 242.68 0.5 239.18 0.5L239.18 0.5Q235.78 0.5 233.13-1.05 230.48-2.6 228.95-5.53 227.43-8.45 227.43-12.5L227.43-12.5Q227.43-16.55 228.95-19.48 230.48-22.4 233.13-23.95 235.78-25.5 239.18-25.5ZM239.23-24.3L239.23-24.3Q236.13-24.3 233.8-22.88 231.48-21.45 230.15-18.82 228.83-16.2 228.83-12.5L228.83-12.5Q228.83-8.85 230.15-6.2 231.48-3.55 233.8-2.13 236.13-0.7 239.23-0.7L239.23-0.7Q242.28-0.7 244.63-2.13 246.98-3.55 248.28-6.2 249.58-8.85 249.58-12.5L249.58-12.5Q249.58-16.2 248.28-18.82 246.98-21.45 244.63-22.88 242.28-24.3 239.23-24.3ZM257.72-36.5L259.12-36.5 259.12-5.55Q259.12-2.95 259.97-1.85 260.82-0.75 262.62-0.75L262.62-0.75Q263.72-0.75 264.32-0.9 264.92-1.05 265.62-1.35L265.62-1.35 265.47-0.1Q264.92 0.15 264.17 0.33 263.42 0.5 262.42 0.5L262.42 0.5Q260.07 0.5 258.9-0.95 257.72-2.4 257.72-5.5L257.72-5.5 257.72-36.5ZM270.22-36.5L271.62-36.5 271.62-5.55Q271.62-2.95 272.47-1.85 273.32-0.75 275.12-0.75L275.12-0.75Q276.22-0.75 276.82-0.9 277.42-1.05 278.12-1.35L278.12-1.35 277.97-0.1Q277.42 0.15 276.67 0.33 275.92 0.5 274.92 0.5L274.92 0.5Q272.57 0.5 271.4-0.95 270.22-2.4 270.22-5.5L270.22-5.5 270.22-36.5Z" opacity="1" transform="matrix(1,0,0,1,0,0)" fill="#729343" class="wordmark-text-0" data-fill-palette-color="primary" id="text-0"></path></svg></g></svg></g><g transform="matrix(1,0,0,1,172.1547571874413,65.209202747801)"><svg viewBox="0 0 223.36524281255868 32.60259668348954" height="32.60259668348954" width="223.36524281255868"><g transform="matrix(1,0,0,1,0,0)"><svg width="223.36524281255868" viewBox="0.65 -38.3 342.85 50.05" height="32.60259668348954" data-palette-color="#729343"><path d="M11.65 0L11.65 0Q11.15 0 10.78-0.28 10.4-0.55 10.4-1.05L10.4-1.05 10.4-34.15 1.75-34.15Q1.25-34.15 0.95-34.52 0.65-34.9 0.65-35.35L0.65-35.35Q0.65-35.8 0.95-36.18 1.25-36.55 1.75-36.55L1.75-36.55 21.5-36.55Q22.05-36.55 22.33-36.2 22.6-35.85 22.6-35.4L22.6-35.4Q22.6-34.9 22.35-34.52 22.1-34.15 21.5-34.15L21.5-34.15 12.9-34.15 12.9-1.05Q12.9-0.55 12.53-0.28 12.15 0 11.65 0ZM23.15 0L23.15 0Q22.65 0 22.3-0.33 21.95-0.65 21.95-1.05L21.95-1.05 21.95-22.6Q21.95-23.05 22.3-23.33 22.65-23.6 23.15-23.6L23.15-23.6Q23.7-23.6 24.02-23.33 24.35-23.05 24.35-22.6L24.35-22.6 24.35-20.05Q24.95-21.05 25.9-21.93 26.85-22.8 28.17-23.35 29.5-23.9 31.2-23.9L31.2-23.9 33-23.9Q33.45-23.9 33.75-23.58 34.05-23.25 34.05-22.75L34.05-22.75Q34.05-22.25 33.75-21.93 33.45-21.6 33-21.6L33-21.6 31.2-21.6Q29.5-21.6 27.92-20.73 26.35-19.85 25.37-18.23 24.4-16.6 24.4-14.3L24.4-14.3 24.4-1.05Q24.4-0.65 24.05-0.33 23.7 0 23.15 0ZM41.84 0.3L41.84 0.3Q38.95 0.3 36.95-1.33 34.95-2.95 34.95-6.3L34.95-6.3Q34.95-8.95 36.42-10.4 37.9-11.85 40.52-12.43 43.15-13 46.59-13L46.59-13 49.3-13 49.3-14.3Q49.3-16.05 48.67-17.75 48.05-19.45 46.67-20.55 45.3-21.65 43-21.65L43-21.65Q41.4-21.65 40.37-21.33 39.34-21 38.72-20.63 38.09-20.25 37.75-20.25L37.75-20.25Q37.25-20.25 36.95-20.73 36.65-21.2 36.65-21.6L36.65-21.6Q36.65-22.2 37.62-22.73 38.59-23.25 40.09-23.58 41.59-23.9 43.09-23.9L43.09-23.9Q46.34-23.9 48.22-22.53 50.09-21.15 50.92-18.98 51.75-16.8 51.75-14.3L51.75-14.3 51.75-1.05Q51.75-0.65 51.42-0.33 51.09 0 50.55 0L50.55 0Q50.05 0 49.7-0.33 49.34-0.65 49.34-1.05L49.34-1.05 49.34-3.5Q48.09-2.05 46.22-0.88 44.34 0.3 41.84 0.3ZM42.2-1.9L42.2-1.9Q43.95-1.9 45.57-2.78 47.2-3.65 48.25-4.93 49.3-6.2 49.3-7.3L49.3-7.3 49.3-11 46.84-11Q44.4-11 42.25-10.73 40.09-10.45 38.75-9.47 37.4-8.5 37.4-6.4L37.4-6.4Q37.4-4.05 38.8-2.98 40.2-1.9 42.2-1.9ZM64.64 0.35L64.64 0.35Q64.19 0.35 63.89 0.18 63.59 0 63.44-0.35L63.44-0.35 55.54-21.75Q55.49-21.85 55.42-22.1 55.34-22.35 55.34-22.5L55.34-22.5Q55.34-22.8 55.57-23.08 55.79-23.35 56.09-23.5 56.39-23.65 56.74-23.65L56.74-23.65Q57.04-23.65 57.34-23.5 57.64-23.35 57.74-23.05L57.74-23.05 64.64-4.15 71.44-22.75Q71.54-23.1 71.74-23.38 71.94-23.65 72.44-23.65L72.44-23.65Q72.74-23.65 73.07-23.53 73.39-23.4 73.64-23.13 73.89-22.85 73.89-22.55L73.89-22.55Q73.89-22.3 73.82-22.1 73.74-21.9 73.69-21.75L73.69-21.75 65.79-0.35Q65.64-0.05 65.34 0.15 65.04 0.35 64.64 0.35ZM87.54 0.3L87.54 0.3Q84.49 0.3 82.17-0.85 79.84-2 78.49-4.08 77.14-6.15 77.14-8.95L77.14-8.95 77.14-14.9Q77.14-17.35 78.42-19.4 79.69-21.45 81.77-22.68 83.84-23.9 86.34-23.9L86.34-23.9Q88.79-23.9 90.84-22.73 92.89-21.55 94.17-19.53 95.44-17.5 95.44-14.85L95.44-14.85Q95.44-13 94.82-12.18 94.19-11.35 93.24-11.18 92.29-11 91.19-11L91.19-11 79.59-11 79.59-8.9Q79.59-5.7 81.89-3.83 84.19-1.95 87.64-1.95L87.64-1.95Q89.69-1.95 90.79-2.45 91.89-2.95 92.49-3.45 93.09-3.95 93.59-3.95L93.59-3.95Q93.94-3.95 94.19-3.75 94.44-3.55 94.59-3.28 94.74-3 94.74-2.75L94.74-2.75Q94.74-2.25 93.87-1.5 92.99-0.75 91.39-0.23 89.79 0.3 87.54 0.3ZM79.59-15.1L79.59-13.05 90.24-13.05Q91.94-13.05 92.49-13.4 93.04-13.75 93.04-14.85L93.04-14.85Q93.04-16.55 92.22-18.13 91.39-19.7 89.87-20.7 88.34-21.7 86.34-21.7L86.34-21.7Q84.44-21.7 82.92-20.8 81.39-19.9 80.49-18.4 79.59-16.9 79.59-15.1L79.59-15.1ZM102.19 0L102.19 0Q101.69 0 101.34-0.33 100.99-0.65 100.99-1.05L100.99-1.05 100.99-37.25Q100.99-37.75 101.34-38.02 101.69-38.3 102.19-38.3L102.19-38.3Q102.74-38.3 103.09-38.02 103.44-37.75 103.44-37.25L103.44-37.25 103.44-1.05Q103.44-0.65 103.09-0.33 102.74 0 102.19 0ZM127.13 0.35L127.13 0.35Q126.68 0.35 126.46 0.15 126.23-0.05 126.03-0.55L126.03-0.55 118.23-21.8Q118.18-21.95 118.11-22.18 118.03-22.4 118.03-22.5L118.03-22.5Q118.03-22.85 118.23-23.1 118.43-23.35 118.76-23.5 119.08-23.65 119.43-23.65L119.43-23.65Q119.73-23.65 120.03-23.5 120.33-23.35 120.43-23.05L120.43-23.05 127.18-4.3 132.63-21.5Q132.73-21.9 133.03-22.08 133.33-22.25 133.73-22.25L133.73-22.25Q134.13-22.25 134.41-22.08 134.68-21.9 134.83-21.5L134.83-21.5 140.08-4.05 146.98-23.05Q147.13-23.65 147.93-23.65L147.93-23.65Q148.23-23.65 148.56-23.53 148.88-23.4 149.08-23.15 149.28-22.9 149.28-22.55L149.28-22.55Q149.28-22.4 149.23-22.15 149.18-21.9 149.08-21.8L149.08-21.8 141.28-0.35Q141.13 0.05 140.86 0.2 140.58 0.35 140.28 0.35L140.28 0.35Q139.88 0.35 139.66 0.2 139.43 0.05 139.28-0.3L139.28-0.3 133.73-17.9 128.23-0.55Q128.08-0.1 127.81 0.13 127.53 0.35 127.13 0.35ZM154.63 0L154.63 0Q154.13 0 153.78-0.33 153.43-0.65 153.43-1.05L153.43-1.05 153.43-22.6Q153.43-23.05 153.78-23.33 154.13-23.6 154.63-23.6L154.63-23.6Q155.18-23.6 155.53-23.33 155.88-23.05 155.88-22.6L155.88-22.6 155.88-1.05Q155.88-0.65 155.53-0.33 155.18 0 154.63 0ZM154.63-31.05L154.63-31.05Q153.88-31.05 153.31-31.6 152.73-32.15 152.73-32.9L152.73-32.9Q152.73-33.65 153.31-34.15 153.88-34.65 154.63-34.65L154.63-34.65Q155.43-34.65 155.96-34.15 156.48-33.65 156.48-32.9L156.48-32.9Q156.48-32.15 155.96-31.6 155.43-31.05 154.63-31.05ZM171.18 0L169.93 0Q166.23 0 164.28-1.7 162.33-3.4 162.33-7.1L162.33-7.1 162.33-34Q162.33-34.5 162.73-34.77 163.13-35.05 163.53-35.05L163.53-35.05Q164.03-35.05 164.4-34.77 164.78-34.5 164.78-34L164.78-34 164.78-23.6 171.43-23.6Q171.83-23.6 172.1-23.3 172.38-23 172.38-22.5L172.38-22.5Q172.38-22.1 172.1-21.78 171.83-21.45 171.43-21.45L171.43-21.45 164.78-21.45 164.78-7.1Q164.78-4.5 165.95-3.4 167.13-2.3 169.93-2.3L169.93-2.3 171.18-2.3Q171.73-2.3 172.03-1.98 172.33-1.65 172.33-1.15L172.33-1.15Q172.33-0.7 172.03-0.35 171.73 0 171.18 0L171.18 0ZM177.83 0L177.83 0Q177.33 0 176.98-0.33 176.63-0.65 176.63-1.05L176.63-1.05 176.63-37.25Q176.63-37.75 176.98-38.02 177.33-38.3 177.83-38.3L177.83-38.3Q178.38-38.3 178.73-38.02 179.08-37.75 179.08-37.25L179.08-37.25 179.08-20.1Q179.93-21.55 181.6-22.73 183.28-23.9 185.73-23.9L185.73-23.9Q188.18-23.9 190.2-22.68 192.23-21.45 193.45-19.38 194.68-17.3 194.68-14.75L194.68-14.75 194.68-1.05Q194.68-0.55 194.3-0.28 193.93 0 193.43 0L193.43 0Q193.03 0 192.63-0.28 192.23-0.55 192.23-1.05L192.23-1.05 192.23-14.75Q192.23-16.5 191.3-18.05 190.38-19.6 188.88-20.6 187.38-21.6 185.53-21.6L185.53-21.6Q183.93-21.6 182.45-20.78 180.98-19.95 180.03-18.43 179.08-16.9 179.08-14.75L179.08-14.75 179.08-1.05Q179.08-0.65 178.73-0.33 178.38 0 177.83 0ZM220.52 0.3L220.52 0.3Q217.47 0.3 215.15-0.85 212.82-2 211.47-4.08 210.12-6.15 210.12-8.95L210.12-8.95 210.12-14.9Q210.12-17.35 211.4-19.4 212.67-21.45 214.75-22.68 216.82-23.9 219.32-23.9L219.32-23.9Q221.77-23.9 223.82-22.73 225.87-21.55 227.15-19.53 228.42-17.5 228.42-14.85L228.42-14.85Q228.42-13 227.8-12.18 227.17-11.35 226.22-11.18 225.27-11 224.17-11L224.17-11 212.57-11 212.57-8.9Q212.57-5.7 214.87-3.83 217.17-1.95 220.62-1.95L220.62-1.95Q222.67-1.95 223.77-2.45 224.87-2.95 225.47-3.45 226.07-3.95 226.57-3.95L226.57-3.95Q226.92-3.95 227.17-3.75 227.42-3.55 227.57-3.28 227.72-3 227.72-2.75L227.72-2.75Q227.72-2.25 226.85-1.5 225.97-0.75 224.37-0.23 222.77 0.3 220.52 0.3ZM212.57-15.1L212.57-13.05 223.22-13.05Q224.92-13.05 225.47-13.4 226.02-13.75 226.02-14.85L226.02-14.85Q226.02-16.55 225.2-18.13 224.37-19.7 222.85-20.7 221.32-21.7 219.32-21.7L219.32-21.7Q217.42-21.7 215.9-20.8 214.37-19.9 213.47-18.4 212.57-16.9 212.57-15.1L212.57-15.1ZM232.97 0.3L232.97 0.3Q232.62 0.3 232.32 0.13 232.02-0.05 231.79-0.33 231.57-0.6 231.57-0.9L231.57-0.9Q231.57-1.2 231.77-1.45L231.77-1.45 238.57-11.95 231.82-22.15Q231.77-22.25 231.69-22.4 231.62-22.55 231.62-22.65L231.62-22.65Q231.62-23 231.84-23.28 232.07-23.55 232.39-23.73 232.72-23.9 233.02-23.9L233.02-23.9Q233.27-23.9 233.52-23.8 233.77-23.7 233.87-23.5L233.87-23.5 240.12-13.9 246.42-23.45Q246.57-23.7 246.79-23.8 247.02-23.9 247.27-23.9L247.27-23.9Q247.57-23.9 247.89-23.75 248.22-23.6 248.44-23.33 248.67-23.05 248.67-22.65L248.67-22.65Q248.67-22.45 248.47-22.15L248.47-22.15 241.67-11.9 248.52-1.45Q248.62-1.35 248.67-1.2 248.72-1.05 248.72-0.9L248.72-0.9Q248.72-0.6 248.52-0.33 248.32-0.05 247.99 0.13 247.67 0.3 247.32 0.3L247.32 0.3Q247.12 0.3 246.87 0.2 246.62 0.1 246.52-0.1L246.52-0.1 240.12-9.9 233.82-0.1Q233.67 0.1 233.44 0.2 233.22 0.3 232.97 0.3ZM254.47 11.75L254.47 11.75Q253.97 11.75 253.62 11.4 253.27 11.05 253.27 10.65L253.27 10.65 253.27-22.6Q253.27-23.05 253.62-23.33 253.97-23.6 254.47-23.6L254.47-23.6Q255.02-23.6 255.34-23.33 255.67-23.05 255.67-22.6L255.67-22.6 255.67-20.1Q256.52-21.55 258.22-22.73 259.92-23.9 262.37-23.9L262.37-23.9Q264.82-23.9 266.87-22.68 268.92-21.45 270.14-19.38 271.37-17.3 271.37-14.75L271.37-14.75 271.37-8.95Q271.37-6.55 270.14-4.42 268.92-2.3 266.89-1 264.87 0.3 262.52 0.3L262.52 0.3Q260.22 0.3 258.39-0.83 256.57-1.95 255.72-3.5L255.72-3.5 255.72 10.65Q255.72 11.05 255.37 11.4 255.02 11.75 254.47 11.75ZM262.27-2L262.27-2Q264.07-2 265.57-3 267.07-4 267.99-5.6 268.92-7.2 268.92-8.95L268.92-8.95 268.92-14.75Q268.92-16.5 267.99-18.05 267.07-19.6 265.57-20.6 264.07-21.6 262.22-21.6L262.22-21.6Q260.62-21.6 259.12-20.78 257.62-19.95 256.67-18.43 255.72-16.9 255.72-14.75L255.72-14.75 255.72-7.25Q255.72-6.45 256.57-5.2 257.42-3.95 258.92-2.98 260.42-2 262.27-2ZM286.56 0.3L286.56 0.3Q283.51 0.3 281.19-0.85 278.86-2 277.51-4.08 276.16-6.15 276.16-8.95L276.16-8.95 276.16-14.9Q276.16-17.35 277.44-19.4 278.71-21.45 280.79-22.68 282.86-23.9 285.36-23.9L285.36-23.9Q287.81-23.9 289.86-22.73 291.91-21.55 293.19-19.53 294.46-17.5 294.46-14.85L294.46-14.85Q294.46-13 293.84-12.18 293.21-11.35 292.26-11.18 291.31-11 290.21-11L290.21-11 278.61-11 278.61-8.9Q278.61-5.7 280.91-3.83 283.21-1.95 286.66-1.95L286.66-1.95Q288.71-1.95 289.81-2.45 290.91-2.95 291.51-3.45 292.11-3.95 292.61-3.95L292.61-3.95Q292.96-3.95 293.21-3.75 293.46-3.55 293.61-3.28 293.76-3 293.76-2.75L293.76-2.75Q293.76-2.25 292.89-1.5 292.01-0.75 290.41-0.23 288.81 0.3 286.56 0.3ZM278.61-15.1L278.61-13.05 289.26-13.05Q290.96-13.05 291.51-13.4 292.06-13.75 292.06-14.85L292.06-14.85Q292.06-16.55 291.24-18.13 290.41-19.7 288.89-20.7 287.36-21.7 285.36-21.7L285.36-21.7Q283.46-21.7 281.94-20.8 280.41-19.9 279.51-18.4 278.61-16.9 278.61-15.1L278.61-15.1ZM300.76 0L300.76 0Q300.26 0 299.91-0.33 299.56-0.65 299.56-1.05L299.56-1.05 299.56-22.6Q299.56-23.05 299.91-23.33 300.26-23.6 300.76-23.6L300.76-23.6Q301.31-23.6 301.64-23.33 301.96-23.05 301.96-22.6L301.96-22.6 301.96-20.05Q302.56-21.05 303.51-21.93 304.46-22.8 305.79-23.35 307.11-23.9 308.81-23.9L308.81-23.9 310.61-23.9Q311.06-23.9 311.36-23.58 311.66-23.25 311.66-22.75L311.66-22.75Q311.66-22.25 311.36-21.93 311.06-21.6 310.61-21.6L310.61-21.6 308.81-21.6Q307.11-21.6 305.54-20.73 303.96-19.85 302.99-18.23 302.01-16.6 302.01-14.3L302.01-14.3 302.01-1.05Q302.01-0.65 301.66-0.33 301.31 0 300.76 0ZM324.21 0L322.96 0Q319.26 0 317.31-1.7 315.36-3.4 315.36-7.1L315.36-7.1 315.36-34Q315.36-34.5 315.76-34.77 316.16-35.05 316.56-35.05L316.56-35.05Q317.06-35.05 317.43-34.77 317.81-34.5 317.81-34L317.81-34 317.81-23.6 324.46-23.6Q324.86-23.6 325.13-23.3 325.41-23 325.41-22.5L325.41-22.5Q325.41-22.1 325.13-21.78 324.86-21.45 324.46-21.45L324.46-21.45 317.81-21.45 317.81-7.1Q317.81-4.5 318.98-3.4 320.16-2.3 322.96-2.3L322.96-2.3 324.21-2.3Q324.76-2.3 325.06-1.98 325.36-1.65 325.36-1.15L325.36-1.15Q325.36-0.7 325.06-0.35 324.76 0 324.21 0L324.21 0ZM335.71 0.3L335.71 0.3Q333.41 0.3 331.73-0.28 330.06-0.85 329.11-1.63 328.16-2.4 328.16-3.1L328.16-3.1Q328.16-3.35 328.28-3.6 328.41-3.85 328.63-4.05 328.86-4.25 329.06-4.25L329.06-4.25Q329.56-4.25 330.21-3.68 330.86-3.1 332.11-2.5 333.36-1.9 335.66-1.9L335.66-1.9Q338.66-1.9 339.91-3.05 341.16-4.2 341.16-5.75L341.16-5.75Q341.16-7.55 340.28-8.58 339.41-9.6 337.96-10.15 336.5-10.7 334.93-11.13 333.36-11.55 331.91-12.2 330.46-12.85 329.56-14.05 328.66-15.25 328.66-17.3L328.66-17.3Q328.66-18.8 329.46-20.35 330.25-21.9 331.93-22.9 333.61-23.9 336.31-23.9L336.31-23.9Q337.91-23.9 339.36-23.58 340.81-23.25 341.75-22.73 342.71-22.2 342.71-21.65L342.71-21.65Q342.71-21.45 342.56-21.13 342.41-20.8 342.18-20.58 341.96-20.35 341.61-20.35L341.61-20.35Q341.25-20.35 340.61-20.7 339.96-21.05 338.91-21.38 337.86-21.7 336.36-21.7L336.36-21.7Q334.41-21.7 333.23-21 332.06-20.3 331.53-19.3 331-18.3 331-17.35L331-17.35Q331-15.85 331.91-15 332.81-14.15 334.23-13.68 335.66-13.2 337.25-12.75 338.86-12.3 340.28-11.55 341.71-10.8 342.61-9.47 343.5-8.15 343.5-5.85L343.5-5.85Q343.5-3.05 341.46-1.38 339.41 0.3 335.71 0.3Z" opacity="1" transform="matrix(1,0,0,1,0,0)" fill="#729343" class="slogan-text-1" data-fill-palette-color="secondary" id="text-1"></path></svg></g></svg></g></svg></g></svg></g><g transform="matrix(1,0,0,1,407.974191933093,0)"><svg viewBox="0 0 135.17590681404354 135.17590681404354" height="135.17590681404354" width="135.17590681404354"><g data-palette-color="#729343"><rect width="36.94808119583857" height="135.17590681404354" fill="#729343" stroke="transparent" data-fill-palette-color="accent" x="0" fill-opacity="1"></rect><rect width="36.94808119583857" height="135.17590681404354" fill="#729343" stroke="transparent" data-fill-palette-color="accent" x="45.05863560468118" fill-opacity="0.75"></rect><rect width="36.94808119583857" height="135.17590681404354" fill="#729343" stroke="transparent" data-fill-palette-color="accent" x="90.11727120936236" fill-opacity="0.5"></rect></g></svg></g></svg></g><defs></defs></svg><rect width="395.5199999999999" height="98.43462200672639" fill="none" stroke="none" visibility="hidden"></rect></g></svg></g></svg>